<svg width="14" height="34" viewBox="0 0 14 34" fill="none" xmlns="http://www.w3.org/2000/svg">
<path d="M7 1C7.61369 1 8.2918 1.29783 9.00781 2.0332C9.72703 2.77198 10.4215 3.89373 11.0254 5.36035C12.2311 8.28886 13 12.4036 13 17C13 21.5964 12.2311 25.7111 11.0254 28.6396C10.4215 30.1063 9.72703 31.228 9.00781 31.9668C8.2918 32.7022 7.61369 33 7 33C6.38631 33 5.7082 32.7022 4.99219 31.9668C4.27297 31.228 3.57851 30.1063 2.97461 28.6396C1.76885 25.7111 1 21.5964 1 17C1 12.4036 1.76885 8.28886 2.97461 5.36035C3.57851 3.89373 4.27297 2.77198 4.99219 2.0332C5.7082 1.29783 6.38631 1 7 1Z" stroke="white" stroke-width="2"/>
</svg>
