<svg width="27" height="65" viewBox="0 0 27 65" fill="none" xmlns="http://www.w3.org/2000/svg">
<path d="M13.5 1C15.0145 1 16.5483 1.73491 18.041 3.25488C19.5371 4.77826 20.9306 7.03398 22.1221 9.90234C24.5033 15.635 26 23.6241 26 32.5C26 41.3759 24.5033 49.365 22.1221 55.0977C20.9306 57.966 19.5371 60.2217 18.041 61.7451C16.5483 63.2651 15.0145 64 13.5 64C11.9855 64 10.4517 63.2651 8.95898 61.7451C7.4629 60.2217 6.06944 57.966 4.87793 55.0977C2.49669 49.365 1 41.3759 1 32.5C1 23.6241 2.49669 15.635 4.87793 9.90234C6.06944 7.03398 7.4629 4.77826 8.95898 3.25488C10.4517 1.73491 11.9855 1 13.5 1Z" stroke="white" stroke-width="2"/>
</svg>
