<svg width="21" height="51" viewBox="0 0 21 51" fill="none" xmlns="http://www.w3.org/2000/svg">
<path d="M10.5 1C11.5969 1 12.7354 1.53569 13.8701 2.70117C15.0081 3.87007 16.0794 5.61389 17 7.84961C18.8392 12.3163 20 18.5562 20 25.5C20 32.4438 18.8392 38.6837 17 43.1504C16.0794 45.3861 15.0081 47.1299 13.8701 48.2988C12.7354 49.4643 11.5969 50 10.5 50C9.40308 50 8.26464 49.4643 7.12988 48.2988C5.99193 47.1299 4.92059 45.3861 4 43.1504C2.16078 38.6837 1 32.4438 1 25.5C1 18.5562 2.16078 12.3163 4 7.84961C4.92059 5.61389 5.99193 3.87007 7.12988 2.70117C8.26464 1.53569 9.40308 1 10.5 1Z" stroke="white" stroke-width="2"/>
</svg>
